<?xml version="1.0" encoding="utf-8"?>
<!-- Generator: Adobe Illustrator 16.0.0, SVG Export Plug-In . SVG Version: 6.00 Build 0)  -->
<!DOCTYPE svg PUBLIC "-//W3C//DTD SVG 1.1//EN" "http://www.w3.org/Graphics/SVG/1.1/DTD/svg11.dtd">
<svg version="1.1" id="Layer_1" xmlns="http://www.w3.org/2000/svg" xmlns:xlink="http://www.w3.org/1999/xlink" x="0px" y="0px"
	 width="84px" height="25px" viewBox="0 0 84 25" enable-background="new 0 0 84 25" xml:space="preserve">
<g>
	<g>
		<path fill-rule="evenodd" clip-rule="evenodd" fill="none" d="M44.422,23.301c-4.286,0-8.572-0.001-12.857,0.004
			c-0.138,0-0.165-0.027-0.165-0.165c0.004-7.646,0.004-15.293,0-22.938c0-0.138,0.027-0.165,0.165-0.165
			c8.572,0.004,17.144,0.004,25.716,0c0.137,0,0.164,0.027,0.164,0.165c-0.004,7.646-0.004,15.292,0,22.938
			c0,0.138-0.027,0.165-0.164,0.165C52.993,23.3,48.708,23.301,44.422,23.301z M51.837,22.028c0.621,0.311,1.238,0.463,1.899,0.41
			c-0.218-0.24-0.522-0.366-0.741-0.674c0.174,0.065,0.292,0.109,0.41,0.154c0.576,0.217,1.166,0.356,1.787,0.309
			c0.201-0.016,0.236-0.061,0.186-0.254c-0.031-0.123-0.069-0.244-0.096-0.369c-0.213-1.004-0.146-1.998,0.103-2.984
			c0.084-0.334,0.174-0.666,0.335-0.999c0.085,0.172,0.096,0.335,0.133,0.489c0.014,0.055-0.021,0.143,0.053,0.155
			c0.08,0.013,0.096-0.082,0.125-0.137c0.166-0.308,0.304-0.627,0.422-0.956c0.445-1.242,0.723-2.518,0.811-3.838
			c0.061-0.913,0.019-1.814-0.272-2.682c-0.399-1.188-1.149-2.142-2.111-2.932c-1.099-0.903-2.362-1.469-3.744-1.773
			c-0.926-0.204-1.864-0.269-2.813-0.257c-0.729,0.009-1.455,0.126-2.188,0.056c-0.686-0.066-1.254-0.309-1.631-0.917
			c-0.252-0.405-0.541-0.784-0.869-1.13c-0.093-0.098-0.093-0.156,0.02-0.236c0.229-0.16,0.319-0.399,0.363-0.668
			c0.04-0.249,0.023-0.493-0.004-0.74c-0.089-0.795-0.624-1.378-1.407-1.524c-0.418-0.078-0.736,0.17-0.75,0.591
			c-0.007,0.207-0.005,0.416-0.002,0.623c0.002,0.116-0.02,0.228-0.046,0.338c-0.03,0.13-0.098,0.182-0.233,0.117
			c-0.097-0.046-0.2-0.078-0.301-0.111c-0.324-0.106-0.454-0.285-0.482-0.627c-0.019-0.23,0.048-0.434,0.129-0.643
			c0.111-0.287-0.005-0.458-0.313-0.469c-0.134-0.006-0.268-0.012-0.401,0.017c-0.666,0.142-1.166,0.729-1.238,1.485
			c-0.016,0.159-0.071,0.211-0.223,0.238c-1.153,0.217-2.29,0.502-3.396,0.898c-0.651,0.232-1.292,0.491-1.839,0.93
			c-0.177,0.141-0.316,0.311-0.371,0.536c-0.169,0.704-0.288,1.417-0.335,2.14c-0.011,0.177-0.063,0.223-0.228,0.185
			c-0.265-0.061-0.534-0.034-0.801-0.02c-0.084,0.005-0.167,0.042-0.163,0.144c0.005,0.105,0.09,0.118,0.177,0.117
			c0.161-0.003,0.322-0.006,0.482-0.004c0.475,0.006,0.491,0.029,0.491,0.496c0,0.145-0.042,0.186-0.185,0.172
			c-0.23-0.021-0.455,0.02-0.666,0.117c-0.083,0.037-0.189,0.086-0.133,0.206c0.048,0.101,0.144,0.079,0.228,0.042
			c0.099-0.045,0.203-0.065,0.31-0.08c0.403-0.059,0.438-0.031,0.511,0.355c0.027,0.144-0.01,0.225-0.15,0.278
			c-0.165,0.063-0.299,0.177-0.419,0.305c-0.065,0.068-0.106,0.153-0.027,0.229c0.074,0.072,0.15,0.025,0.21-0.036
			c0.085-0.087,0.181-0.159,0.283-0.225c0.13-0.084,0.208-0.077,0.261,0.091c0.068,0.211,0.156,0.436,0.387,0.511
			c0.178,0.058,0.295,0.158,0.389,0.308c0.035,0.057,0.088,0.102,0.134,0.15c0.312,0.326,0.702,0.543,1.109,0.713
			c0.54,0.225,0.822,0.634,0.977,1.172c0.188,0.654,0.243,1.328,0.318,2c0.057,0.512,0.098,1.027,0.301,1.511
			c0.033,0.078,0.044,0.196,0.132,0.213c0.093,0.019,0.059-0.138,0.144-0.167c0.064,0.041,0.061,0.113,0.078,0.176
			c0.083,0.293,0.213,0.563,0.398,0.807c0.027,0.036,0.06,0.082,0.099,0.094c0.065,0.02,0.015-0.104,0.101-0.092
			c0.236,0.573,0.447,1.158,0.604,1.763c0.111,0.429,0.194,0.861,0.197,1.308c0.002,0.252-0.067,0.438-0.335,0.521
			c-0.179,0.055-0.348,0.141-0.52,0.216c-0.271,0.117-0.489,0.302-0.658,0.543c-0.041,0.06-0.126,0.124-0.091,0.189
			c0.043,0.08,0.131,0,0.2-0.003c0.046-0.001,0.091-0.022,0.137-0.028c0.032-0.004,0.076-0.009,0.095,0.009
			c0.04,0.036-0.006,0.07-0.022,0.104c-0.011,0.023-0.027,0.046-0.037,0.07c-0.019,0.049-0.068,0.098-0.035,0.149
			c0.037,0.058,0.1,0.022,0.148,0.017c0.117-0.017,0.233-0.042,0.371-0.067c-0.039,0.095-0.071,0.166-0.098,0.24
			c-0.051,0.144-0.018,0.204,0.146,0.156c0.16-0.048,0.325-0.082,0.488-0.12c0.521-0.124,1.042-0.249,1.563-0.368
			c0.117-0.026,0.264,0.049,0.352-0.03c0.104-0.092,0.009-0.239,0.007-0.361c-0.01-0.858,0.328-1.618,0.659-2.381
			c0.003-0.007,0.022-0.008,0.034-0.011c0.159,0.242,0.355,0.849,0.417,1.29c0.103,0.734-0.066,1.076-0.709,1.438
			c-0.123,0.069-0.247,0.136-0.367,0.21c-0.207,0.127-0.398,0.273-0.542,0.474c-0.049,0.067-0.132,0.147-0.078,0.228
			c0.046,0.068,0.135-0.012,0.205-0.019c0.031-0.003,0.063-0.028,0.096,0.011c-0.043,0.107-0.095,0.217-0.128,0.33
			c-0.021,0.074-0.061,0.174-0.001,0.23c0.066,0.064,0.149-0.008,0.221-0.033c0.332-0.117,0.332-0.119,0.272,0.23
			c-0.039,0.231-0.008,0.26,0.208,0.178c0.727-0.275,1.454-0.551,2.18-0.83c0.114-0.045,0.228-0.072,0.352-0.069
			c0.1,0.002,0.219,0.025,0.296-0.02c0.132-0.077-0.013-0.186-0.017-0.282c-0.039-0.891,0.037-1.74,0.666-2.455
			c0.221-0.25,0.294-0.582,0.351-0.947c-0.326,0.246-0.326,0.246-0.419-0.041c-0.121-0.379-0.128-0.385-0.408-0.08
			c-0.12,0.131-0.199,0.129-0.295-0.008c-0.027-0.039-0.058-0.074-0.083-0.113c-0.188-0.296-0.194-0.299-0.353,0.021
			c-0.064,0.127-0.12,0.109-0.215,0.046c-0.198-0.13-0.355-0.299-0.479-0.517c-0.131,0.134-0.138,0.293-0.187,0.469
			c-0.406-0.393-0.64-0.879-0.951-1.352c-0.038,0.151-0.063,0.256-0.098,0.396c-0.689-0.779-1.289-1.58-1.897-2.394
			c-0.062,0.106-0.042,0.188-0.032,0.264c0.072,0.565,0.248,1.097,0.517,1.598c0.046,0.086,0.068,0.227,0.169,0.228
			c0.098,0.001,0.083-0.149,0.139-0.221c0.007-0.009,0.022-0.011,0.045-0.021c0.067,0.225,0.105,0.458,0.21,0.667
			c0.041,0.083,0.067,0.217,0.158,0.217c0.112,0,0.079-0.148,0.123-0.224c0.006-0.011,0.021-0.016,0.031-0.022
			c0.432,0.434,0.486,0.885,0.151,1.335c-0.065-0.168-0.153-0.317-0.264-0.453c-0.046-0.057-0.086-0.146-0.159-0.144
			c-0.097,0.004-0.046,0.133-0.112,0.193c-0.202-0.348-0.398-0.687-0.599-1.033c-0.101,0.103,0,0.256-0.106,0.274
			c-0.092,0.017-0.154-0.112-0.222-0.183c-0.168-0.176-0.294-0.383-0.43-0.582c-0.021-0.031-0.041-0.079-0.09-0.063
			c-0.046,0.017-0.032,0.067-0.038,0.105c-0.012,0.068,0.045,0.141-0.012,0.213c-0.512-0.313-0.56-0.918-0.848-1.366
			c-0.106,0.058-0.05,0.173-0.131,0.251c-0.165-0.35-0.161-0.735-0.3-1.084c-0.131,0.06-0.135,0.213-0.268,0.281
			c-0.21-1.012-0.197-2.035-0.457-3.062c0.162,0.101,0.272,0.175,0.387,0.24c0.095,0.055,0.147,0.028,0.15-0.091
			c0.002-0.086-0.028-0.179,0.023-0.279c0.276,0.265,0.59,0.401,0.984,0.483c-0.123-0.243-0.289-0.417-0.274-0.699
			c0.372,0.333,0.8,0.454,1.298,0.548c-0.191-0.206-0.426-0.312-0.477-0.594c0.148,0.085,0.259,0.174,0.398,0.21
			c0.065,0.017,0.139,0.054,0.192,0.007c0.065-0.058-0.01-0.12-0.025-0.18c-0.014-0.055-0.074-0.098-0.04-0.181
			c0.362,0.163,0.727,0.31,1.178,0.249c-0.189-0.15-0.382-0.221-0.516-0.416c0.329,0.075,0.63,0.068,0.932,0.062
			c0.07-0.001,0.175,0.031,0.201-0.044c0.031-0.088-0.088-0.095-0.137-0.143c-0.05-0.049-0.134-0.061-0.164-0.154
			c0.383-0.116,0.763-0.232,1.142-0.348c-0.004-0.02-0.008-0.038-0.013-0.057c-0.759-0.008-1.521,0.043-2.284-0.165
			c0.028,0.142,0.156,0.148,0.196,0.253c-0.473-0.028-0.851-0.281-1.264-0.473c-0.015,0.132,0.093,0.203,0.075,0.32
			c-0.205-0.055-0.393-0.138-0.582-0.221c-0.192-0.086-0.363-0.211-0.553-0.334c-0.005,0.303-0.005,0.305-0.257,0.195
			c-0.203-0.089-0.4-0.189-0.581-0.317c-0.101-0.071-0.196-0.147-0.302-0.228c-0.06,0.228-0.06,0.227-0.211,0.116
			c-0.073-0.053-0.148-0.175-0.195,0.032c-0.017,0.073-0.09-0.003-0.128-0.027c-0.109-0.067-0.184-0.186-0.305-0.231
			c-0.061,0.063,0.002,0.168-0.072,0.188c-0.079,0.022-0.12-0.07-0.174-0.116c-0.056-0.048-0.103-0.104-0.149-0.163
			c-0.087-0.108-0.145-0.115-0.17,0.039c-0.005,0.03-0.014,0.066-0.063,0.076c-0.169-0.21-0.289-0.428-0.27-0.725
			c0.034-0.534,0.044-1.071,0.042-1.607c-0.001-0.246,0.119-0.408,0.272-0.581c0.083,0.247,0.111,0.257,0.314,0.112
			c0.101-0.072,0.195-0.154,0.294-0.234c0.059,0.078-0.02,0.201,0.074,0.225c0.096,0.022,0.167-0.07,0.23-0.138
			c0.085-0.092,0.163-0.191,0.255-0.301c0.024,0.077,0.044,0.138,0.062,0.2c0.019,0.063,0.049,0.064,0.104,0.033
			c0.383-0.221,0.6-0.761,0.469-1.184c-0.087-0.281-0.204-0.553-0.249-0.848c-0.064-0.418,0.031-0.636,0.393-0.848
			c0.504-0.295,1.037-0.533,1.569-0.771c0.62-0.277,1.242-0.537,1.936-0.557c0.522-0.016,1.02,0.084,1.524,0.294
			c-0.109,0.104-0.22,0.149-0.324,0.207c-0.098,0.054-0.145,0.128-0.061,0.226c0.263,0.304,0.843,0.195,0.974-0.183
			c0.046-0.134,0.063-0.274,0.054-0.417c-0.025-0.388-0.055-0.775-0.038-1.164c0.01-0.235,0.165-0.381,0.396-0.342
			c0.389,0.066,0.74,0.229,0.959,0.566c0.318,0.493,0.372,1.039,0.223,1.604c-0.047,0.173-0.203,0.308-0.366,0.34
			c0.19-0.346,0.311-0.705,0.233-1.1c-0.105-0.533-0.369-0.965-0.855-1.227c-0.294-0.158-0.506-0.014-0.497,0.32
			c0.005,0.202,0.074,0.393,0.13,0.586c0.073,0.25,0.181,0.489,0.21,0.753c0.043,0.375-0.111,0.604-0.473,0.681
			c-0.059,0.014-0.118,0.025-0.174,0.045c-0.371,0.133-0.454,0.438-0.198,0.738c0.152,0.178,0.354,0.284,0.572,0.36
			c0.363,0.128,0.484,0.053,0.507-0.327c0.016-0.248,0.211-0.304,0.383-0.389c0.16-0.08,0.211,0.074,0.285,0.153
			c0.376,0.403,0.671,0.87,0.993,1.314c0.241,0.332,0.569,0.548,0.96,0.661c0.533,0.157,1.081,0.199,1.632,0.154
			c1.132-0.092,2.262-0.115,3.388,0.061c1.524,0.238,2.921,0.78,4.146,1.732c0.624,0.484,1.156,1.037,1.406,1.814
			c0.172,0.533,0.271,1.078,0.313,1.633c0.014,0.169,0.078,0.339,0.019,0.541c-0.124-0.096-0.233-0.181-0.344-0.263
			c-0.036-0.026-0.076-0.074-0.123-0.045c-0.044,0.028-0.026,0.085-0.021,0.131c0.031,0.231,0.072,0.463,0.094,0.696
			c0.039,0.4,0.033,0.797-0.134,1.217c-0.108-0.149-0.193-0.274-0.286-0.393c-0.033-0.043-0.049-0.136-0.123-0.107
			c-0.064,0.025-0.033,0.107-0.031,0.164c0.008,0.691,0.011,1.381-0.088,2.067c-0.019,0.128,0,0.262-0.088,0.391
			c-0.124-0.155-0.238-0.298-0.373-0.468c-0.123,0.557-0.031,1.084-0.082,1.633c-0.112-0.09-0.193-0.158-0.279-0.221
			c-0.047-0.033-0.088-0.104-0.154-0.071c-0.056,0.026-0.031,0.096-0.035,0.147c-0.059,0.654-0.093,1.307-0.045,1.966
			c0.074,1.038,0.311,2.022,0.836,2.929c0.095,0.164,0.191,0.326,0.286,0.489c-0.853-0.493-1.576-1.128-2.269-1.877
			c-0.021,0.288,0.135,0.455,0.22,0.681c-0.501-0.201-0.888-0.516-1.31-0.855c0.02,0.349,0.186,0.574,0.357,0.842
			c-0.931-0.318-1.715-0.768-2.361-1.529c0.02,0.373,0.146,0.654,0.238,0.98c-0.788-0.365-1.33-0.971-1.873-1.623
			c-0.072,0.258,0.046,0.451,0.066,0.691c-0.744-0.652-1.389-1.33-1.786-2.274c-0.116,0.354-0.087,0.647-0.071,0.944
			c-0.821-0.988-1.535-2.04-2.152-3.162c0.057,0.411,0.225,0.792,0.264,1.219c-0.134-0.043-0.189-0.176-0.333-0.193
			c0.101,0.412,0.269,0.791,0.271,1.218c-0.104-0.034-0.134-0.135-0.25-0.133c0.026,0.228,0.05,0.45,0.078,0.673
			c0.072,0.58,0.02,1.119-0.412,1.573c-0.222,0.231-0.427,0.483-0.579,0.771c-0.064,0.119-0.125,0.244-0.055,0.381
			c0.258,0.509,0.627,0.898,1.182,1.084c0.059,0.02,0.122,0.049,0.185-0.002c-0.248-0.319-0.311-0.463-0.288-0.654
			c0.583,0.577,0.9,0.778,1.233,0.767c-0.092-0.181-0.198-0.351-0.228-0.573c0.081,0.045,0.138,0.08,0.196,0.108
			c0.348,0.17,0.703,0.311,1.1,0.231c0.289-0.059,0.574-0.131,0.861-0.199c0.663-0.157,1.303-0.164,1.881,0.272
			c0.256,0.194,0.516,0.385,0.771,0.579c0.111,0.086,0.219,0.178,0.328,0.268c-0.043,0.011-0.069,0.004-0.092-0.01
			c-0.096-0.061-0.191-0.123-0.286-0.186c-0.757-0.51-1.515-1.011-2.505-0.813c-0.465,0.093-0.947,0.078-1.4,0.239
			c-0.346,0.123-0.658,0.302-0.908,0.576c-0.029,0.032-0.072,0.072-0.049,0.122c0.025,0.057,0.082,0.023,0.125,0.023
			c0.065,0,0.132-0.023,0.206,0.021c-0.022,0.028-0.042,0.053-0.06,0.078c-0.057,0.079-0.186,0.151-0.133,0.247
			c0.053,0.1,0.182,0.018,0.277,0.018c0.304,0,0.607,0,0.91,0c-0.018,0.018-0.045,0.045-0.069,0.073
			c-0.054,0.063-0.169,0.113-0.124,0.206c0.037,0.074,0.146,0.025,0.225,0.029c0.014,0,0.027-0.002,0.04-0.004
			c0.554-0.05,1.106-0.101,1.659-0.148c0.781-0.068,1.562-0.131,2.342-0.203c0.131-0.012,0.241-0.007,0.359,0.067
			c0.136,0.085,0.285,0.164,0.482,0.13c-0.143-0.202-0.345-0.336-0.438-0.58c0.43,0.189,0.813,0.45,1.289,0.396
			C52.229,22.411,51.985,22.307,51.837,22.028z M40.015,3.851L40.015,3.851c-0.261,0-0.523,0.002-0.784,0
			c-0.122-0.001-0.155,0.051-0.113,0.163c0.143,0.384,0.392,0.654,0.806,0.737c0.548,0.111,0.967-0.177,1.001-0.672
			c0.011-0.159-0.028-0.239-0.205-0.231C40.484,3.858,40.25,3.851,40.015,3.851z M35.757,7.689c-0.173,0.013-0.348,0.019-0.52,0.04
			c-0.074,0.009-0.145,0.051-0.138,0.145c0.007,0.098,0.079,0.113,0.159,0.111c0.094-0.003,0.188-0.003,0.281-0.008
			c0.419-0.02,0.83,0.011,1.223,0.17c0.1,0.041,0.195,0.09,0.293,0.133c0.072,0.032,0.134,0.016,0.173-0.052
			c0.04-0.07,0.013-0.132-0.048-0.175c-0.049-0.033-0.104-0.061-0.158-0.087C36.622,7.776,36.197,7.7,35.757,7.689z M36.775,7.177
			c0.094,0,0.187,0,0.281-0.001c0.092-0.001,0.187-0.012,0.185-0.13c-0.002-0.113-0.098-0.135-0.188-0.135
			c-0.273-0.004-0.547-0.02-0.819,0.037c-0.322,0.066-0.631,0.172-0.925,0.317c-0.083,0.041-0.161,0.093-0.109,0.198
			s0.142,0.075,0.226,0.039c0.062-0.027,0.123-0.054,0.184-0.079C35.982,7.269,36.367,7.164,36.775,7.177z M35.346,8.401
			c-0.077-0.004-0.144,0.029-0.159,0.111c-0.016,0.088,0.043,0.134,0.125,0.15c0.079,0.017,0.157,0.031,0.236,0.047
			c0.342,0.066,0.678,0.15,0.958,0.375c0.08,0.064,0.166,0.145,0.256,0.033c0.092-0.115-0.012-0.183-0.088-0.243
			C36.287,8.569,35.823,8.478,35.346,8.401z M39.601,2.93c-0.283,0.007-0.625,0.451-0.564,0.729c0.013,0.059,0.04,0.101,0.099,0.11
			c0.068,0.012,0.13-0.02,0.137-0.086c0.03-0.262,0.18-0.42,0.412-0.521c0.063-0.027,0.071-0.096,0.046-0.158
			C39.709,2.948,39.66,2.927,39.601,2.93z M40.388,2.967c-0.063-0.003-0.122,0.007-0.152,0.071
			c-0.027,0.059-0.009,0.119,0.039,0.142c0.215,0.099,0.344,0.269,0.434,0.479c0.025,0.059,0.088,0.082,0.154,0.057
			c0.055-0.021,0.083-0.064,0.086-0.124C40.959,3.383,40.595,2.976,40.388,2.967z M39.697,4.921
			c0.005-0.059-0.014-0.108-0.056-0.127c-0.21-0.088-0.366-0.233-0.487-0.424c-0.036-0.057-0.107-0.055-0.163-0.021
			c-0.058,0.033-0.069,0.088-0.049,0.155C39,4.7,39.343,5.003,39.538,5.026C39.626,5.036,39.675,4.995,39.697,4.921z M39.193,5.202
			c0.071,0.004,0.135-0.004,0.164-0.083c0.021-0.059,0.001-0.122-0.047-0.14c-0.194-0.069-0.311-0.219-0.431-0.373
			c-0.04-0.052-0.11-0.05-0.166-0.014c-0.051,0.033-0.049,0.091-0.038,0.146C38.71,4.906,39.027,5.188,39.193,5.202z"/>
		<path fill-rule="evenodd" clip-rule="evenodd" d="M51.837,22.028c0.148,0.278,0.393,0.383,0.604,0.534
			c-0.477,0.055-0.859-0.206-1.289-0.396c0.093,0.244,0.295,0.378,0.438,0.58c-0.197,0.034-0.347-0.045-0.482-0.13
			c-0.118-0.074-0.229-0.079-0.359-0.067c-0.78,0.072-1.561,0.135-2.342,0.203c-0.553,0.048-1.105,0.099-1.659,0.148
			c-0.013,0.002-0.026,0.004-0.04,0.004c-0.078-0.004-0.188,0.045-0.225-0.029c-0.045-0.093,0.07-0.143,0.124-0.206
			c0.024-0.028,0.052-0.056,0.069-0.073c-0.303,0-0.606,0-0.91,0c-0.096,0-0.225,0.082-0.277-0.018
			c-0.053-0.096,0.076-0.168,0.133-0.247c0.018-0.025,0.037-0.05,0.06-0.078c-0.074-0.044-0.141-0.021-0.206-0.021
			c-0.043,0-0.1,0.033-0.125-0.023c-0.023-0.05,0.02-0.09,0.049-0.122c0.25-0.274,0.563-0.453,0.908-0.576
			c0.453-0.161,0.936-0.146,1.4-0.239c0.99-0.198,1.748,0.303,2.505,0.813c0.095,0.063,0.19,0.125,0.286,0.186
			c0.022,0.014,0.049,0.021,0.092,0.01c-0.109-0.09-0.217-0.182-0.328-0.268c-0.256-0.194-0.516-0.385-0.771-0.579
			c-0.578-0.437-1.218-0.43-1.881-0.272c-0.287,0.068-0.572,0.141-0.861,0.199c-0.396,0.079-0.752-0.062-1.1-0.231
			c-0.059-0.028-0.115-0.063-0.196-0.108c0.029,0.223,0.136,0.393,0.228,0.573c-0.333,0.012-0.65-0.189-1.233-0.767
			c-0.022,0.191,0.04,0.335,0.288,0.654c-0.063,0.051-0.126,0.021-0.185,0.002c-0.555-0.186-0.924-0.575-1.182-1.084
			c-0.07-0.137-0.01-0.262,0.055-0.381c0.152-0.287,0.357-0.539,0.579-0.771c0.432-0.454,0.484-0.993,0.412-1.573
			c-0.028-0.223-0.052-0.445-0.078-0.673c0.116-0.002,0.146,0.099,0.25,0.133c-0.002-0.427-0.17-0.806-0.271-1.218
			c0.144,0.018,0.199,0.15,0.333,0.193c-0.039-0.427-0.207-0.808-0.264-1.219c0.617,1.122,1.331,2.174,2.152,3.162
			c-0.016-0.297-0.045-0.59,0.071-0.944c0.397,0.944,1.042,1.622,1.786,2.274c-0.021-0.24-0.139-0.434-0.066-0.691
			c0.543,0.652,1.085,1.258,1.873,1.623c-0.092-0.326-0.219-0.607-0.238-0.98c0.646,0.762,1.431,1.211,2.361,1.529
			c-0.172-0.268-0.338-0.493-0.357-0.842c0.422,0.34,0.809,0.654,1.31,0.855c-0.085-0.226-0.241-0.393-0.22-0.681
			c0.692,0.749,1.416,1.384,2.269,1.877c-0.095-0.163-0.191-0.325-0.286-0.489c-0.525-0.906-0.762-1.891-0.836-2.929
			c-0.048-0.659-0.014-1.312,0.045-1.966c0.004-0.052-0.021-0.121,0.035-0.147c0.066-0.032,0.107,0.038,0.154,0.071
			c0.086,0.063,0.167,0.131,0.279,0.221c0.051-0.549-0.041-1.076,0.082-1.633c0.135,0.17,0.249,0.313,0.373,0.468
			c0.088-0.129,0.069-0.263,0.088-0.391c0.099-0.687,0.096-1.376,0.088-2.067c-0.002-0.057-0.033-0.139,0.031-0.164
			c0.074-0.028,0.09,0.064,0.123,0.107c0.093,0.118,0.178,0.243,0.286,0.393c0.167-0.42,0.173-0.816,0.134-1.217
			c-0.021-0.233-0.063-0.465-0.094-0.696c-0.006-0.046-0.023-0.103,0.021-0.131c0.047-0.029,0.087,0.019,0.123,0.045
			c0.11,0.082,0.22,0.167,0.344,0.263c0.06-0.202-0.005-0.372-0.019-0.541c-0.042-0.555-0.141-1.1-0.313-1.633
			c-0.25-0.777-0.782-1.33-1.406-1.814c-1.225-0.952-2.621-1.494-4.146-1.732c-1.126-0.176-2.256-0.152-3.388-0.061
			c-0.551,0.045-1.099,0.003-1.632-0.154c-0.391-0.113-0.719-0.329-0.96-0.661C44.13,4.771,43.835,4.304,43.459,3.9
			c-0.074-0.079-0.125-0.233-0.285-0.153c-0.172,0.085-0.367,0.141-0.383,0.389c-0.023,0.38-0.145,0.455-0.507,0.327
			c-0.217-0.076-0.419-0.183-0.572-0.36c-0.256-0.301-0.173-0.605,0.198-0.738c0.056-0.02,0.116-0.031,0.174-0.045
			c0.362-0.077,0.516-0.306,0.473-0.681c-0.029-0.264-0.138-0.503-0.21-0.753c-0.056-0.193-0.125-0.384-0.13-0.586
			c-0.009-0.334,0.203-0.479,0.497-0.32c0.486,0.262,0.75,0.693,0.855,1.227c0.077,0.395-0.043,0.754-0.233,1.1
			c0.163-0.032,0.319-0.167,0.366-0.34c0.149-0.564,0.096-1.11-0.223-1.604c-0.219-0.338-0.57-0.5-0.959-0.566
			c-0.232-0.039-0.386,0.106-0.396,0.342c-0.017,0.389,0.013,0.776,0.038,1.164c0.009,0.143-0.007,0.283-0.054,0.417
			c-0.131,0.378-0.71,0.486-0.974,0.183c-0.084-0.098-0.038-0.172,0.061-0.226c0.104-0.058,0.215-0.103,0.324-0.207
			c-0.505-0.21-1.002-0.31-1.524-0.294c-0.694,0.02-1.316,0.279-1.936,0.557c-0.532,0.238-1.064,0.477-1.569,0.771
			c-0.362,0.212-0.457,0.43-0.393,0.848c0.045,0.295,0.161,0.566,0.249,0.848c0.131,0.423-0.086,0.963-0.469,1.184
			c-0.055,0.031-0.085,0.029-0.104-0.033c-0.018-0.063-0.038-0.123-0.062-0.2c-0.092,0.109-0.169,0.209-0.255,0.301
			c-0.063,0.067-0.134,0.16-0.23,0.138c-0.094-0.023-0.016-0.146-0.074-0.225c-0.099,0.08-0.193,0.162-0.294,0.234
			c-0.203,0.145-0.231,0.135-0.314-0.112c-0.153,0.173-0.273,0.335-0.272,0.581c0.001,0.536-0.009,1.073-0.042,1.607
			c-0.019,0.297,0.1,0.515,0.27,0.725c0.048-0.01,0.057-0.046,0.063-0.076c0.026-0.154,0.083-0.147,0.17-0.039
			c0.046,0.059,0.093,0.115,0.149,0.163c0.054,0.046,0.095,0.139,0.174,0.116c0.074-0.021,0.011-0.125,0.072-0.188
			c0.121,0.046,0.195,0.164,0.305,0.231c0.038,0.024,0.111,0.101,0.128,0.027c0.046-0.207,0.122-0.085,0.195-0.032
			c0.152,0.11,0.151,0.111,0.211-0.116c0.105,0.08,0.201,0.156,0.302,0.228c0.181,0.128,0.378,0.229,0.581,0.317
			c0.251,0.109,0.252,0.107,0.257-0.195c0.19,0.123,0.361,0.248,0.553,0.334c0.188,0.083,0.376,0.166,0.582,0.221
			c0.018-0.117-0.09-0.188-0.075-0.32c0.413,0.191,0.791,0.444,1.264,0.473c-0.04-0.104-0.168-0.111-0.196-0.253
			c0.763,0.208,1.525,0.157,2.284,0.165c0.004,0.019,0.009,0.037,0.013,0.057c-0.379,0.115-0.759,0.231-1.142,0.348
			c0.03,0.094,0.114,0.105,0.164,0.154c0.049,0.048,0.168,0.055,0.137,0.143c-0.026,0.075-0.131,0.043-0.201,0.044
			c-0.301,0.007-0.603,0.014-0.932-0.062c0.134,0.195,0.327,0.266,0.516,0.416c-0.451,0.061-0.816-0.086-1.178-0.249
			c-0.035,0.083,0.025,0.126,0.04,0.181c0.016,0.06,0.091,0.122,0.025,0.18c-0.053,0.047-0.127,0.01-0.192-0.007
			c-0.139-0.036-0.25-0.125-0.398-0.21c0.051,0.282,0.286,0.388,0.477,0.594c-0.498-0.094-0.927-0.215-1.298-0.548
			c-0.015,0.282,0.151,0.456,0.274,0.699c-0.395-0.082-0.708-0.219-0.984-0.483c-0.052,0.101-0.021,0.193-0.023,0.279
			c-0.002,0.119-0.055,0.146-0.15,0.091c-0.115-0.065-0.225-0.14-0.387-0.24c0.26,1.026,0.247,2.05,0.457,3.062
			c0.132-0.068,0.136-0.222,0.268-0.281c0.14,0.349,0.136,0.734,0.3,1.084c0.081-0.078,0.024-0.193,0.131-0.251
			c0.288,0.448,0.335,1.053,0.848,1.366c0.057-0.072,0-0.145,0.012-0.213c0.006-0.038-0.008-0.089,0.038-0.105
			c0.049-0.017,0.069,0.031,0.09,0.063c0.136,0.199,0.261,0.406,0.43,0.582c0.068,0.07,0.13,0.199,0.222,0.183
			c0.106-0.019,0.006-0.172,0.106-0.274c0.201,0.347,0.397,0.686,0.599,1.033c0.066-0.061,0.016-0.189,0.112-0.193
			c0.073-0.002,0.113,0.087,0.159,0.144c0.111,0.136,0.198,0.285,0.264,0.453c0.334-0.45,0.281-0.901-0.152-1.335
			c-0.01,0.007-0.025,0.012-0.031,0.022c-0.044,0.075-0.011,0.224-0.123,0.224c-0.09,0-0.117-0.134-0.158-0.217
			c-0.105-0.209-0.143-0.442-0.21-0.667c-0.023,0.011-0.039,0.013-0.045,0.021c-0.056,0.071-0.042,0.222-0.139,0.221
			c-0.101-0.001-0.124-0.142-0.169-0.228c-0.269-0.501-0.445-1.032-0.517-1.598c-0.01-0.076-0.03-0.157,0.032-0.264
			c0.608,0.813,1.208,1.614,1.897,2.394c0.035-0.14,0.061-0.244,0.098-0.396c0.312,0.473,0.545,0.959,0.951,1.352
			c0.049-0.176,0.056-0.335,0.187-0.469c0.124,0.218,0.281,0.387,0.479,0.517c0.095,0.063,0.151,0.081,0.215-0.046
			c0.158-0.32,0.164-0.317,0.353-0.021c0.025,0.039,0.056,0.074,0.083,0.113c0.096,0.137,0.175,0.139,0.295,0.008
			c0.28-0.305,0.287-0.299,0.408,0.08c0.093,0.287,0.093,0.287,0.419,0.041c-0.057,0.365-0.13,0.697-0.351,0.947
			c-0.629,0.715-0.705,1.564-0.666,2.455c0.004,0.097,0.148,0.205,0.017,0.282c-0.077,0.045-0.196,0.021-0.296,0.02
			c-0.124-0.003-0.237,0.024-0.352,0.069c-0.726,0.279-1.453,0.555-2.18,0.83c-0.216,0.082-0.247,0.054-0.208-0.178
			c0.059-0.35,0.06-0.348-0.272-0.23c-0.072,0.025-0.155,0.098-0.221,0.033c-0.06-0.057-0.02-0.156,0.001-0.23
			c0.033-0.113,0.085-0.223,0.128-0.33c-0.033-0.039-0.065-0.014-0.096-0.011c-0.07,0.007-0.159,0.087-0.205,0.019
			c-0.054-0.08,0.029-0.16,0.078-0.228c0.144-0.2,0.334-0.347,0.542-0.474c0.12-0.074,0.244-0.141,0.367-0.21
			c0.643-0.362,0.812-0.704,0.709-1.438c-0.062-0.441-0.259-1.048-0.417-1.29c-0.012,0.003-0.031,0.004-0.034,0.011
			c-0.331,0.763-0.669,1.522-0.659,2.381c0.001,0.122,0.097,0.27-0.007,0.361c-0.088,0.079-0.235,0.004-0.352,0.03
			c-0.522,0.119-1.042,0.244-1.563,0.368c-0.163,0.038-0.328,0.072-0.488,0.12c-0.165,0.048-0.197-0.013-0.146-0.156
			c0.026-0.074,0.059-0.146,0.098-0.24c-0.138,0.025-0.253,0.051-0.371,0.067c-0.049,0.006-0.112,0.041-0.148-0.017
			c-0.033-0.052,0.016-0.101,0.035-0.149c0.009-0.024,0.025-0.047,0.037-0.07c0.016-0.034,0.062-0.068,0.022-0.104
			c-0.019-0.018-0.063-0.013-0.095-0.009c-0.046,0.006-0.091,0.027-0.137,0.028c-0.068,0.003-0.156,0.083-0.2,0.003
			c-0.035-0.065,0.05-0.13,0.091-0.189c0.169-0.241,0.387-0.426,0.658-0.543c0.172-0.075,0.341-0.161,0.52-0.216
			c0.268-0.082,0.337-0.269,0.335-0.521c-0.003-0.446-0.086-0.879-0.197-1.308c-0.157-0.604-0.368-1.189-0.604-1.763
			c-0.086-0.012-0.036,0.111-0.101,0.092c-0.039-0.012-0.071-0.058-0.099-0.094c-0.185-0.243-0.315-0.514-0.398-0.807
			c-0.017-0.063-0.014-0.135-0.078-0.176c-0.085,0.029-0.051,0.186-0.144,0.167c-0.087-0.017-0.099-0.135-0.132-0.213
			c-0.203-0.483-0.244-0.999-0.301-1.511c-0.075-0.672-0.129-1.346-0.318-2c-0.155-0.538-0.437-0.947-0.977-1.172
			c-0.408-0.17-0.797-0.387-1.109-0.713c-0.046-0.049-0.099-0.094-0.134-0.15c-0.094-0.149-0.211-0.25-0.389-0.308
			c-0.23-0.075-0.319-0.3-0.387-0.511c-0.053-0.168-0.13-0.175-0.261-0.091c-0.102,0.065-0.198,0.138-0.283,0.225
			c-0.061,0.062-0.136,0.108-0.21,0.036c-0.079-0.076-0.039-0.161,0.027-0.229c0.121-0.128,0.255-0.242,0.419-0.305
			c0.14-0.054,0.178-0.135,0.15-0.278c-0.073-0.387-0.108-0.414-0.511-0.355c-0.107,0.015-0.211,0.035-0.31,0.08
			c-0.084,0.037-0.18,0.059-0.228-0.042c-0.057-0.12,0.049-0.169,0.133-0.206c0.211-0.098,0.436-0.139,0.666-0.117
			c0.143,0.014,0.185-0.027,0.185-0.172c0-0.467-0.016-0.49-0.491-0.496c-0.161-0.002-0.322,0.001-0.482,0.004
			c-0.087,0.001-0.172-0.012-0.177-0.117c-0.004-0.102,0.079-0.139,0.163-0.144c0.267-0.015,0.537-0.041,0.801,0.02
			c0.165,0.038,0.216-0.008,0.228-0.185c0.047-0.723,0.166-1.436,0.335-2.14c0.055-0.226,0.194-0.396,0.371-0.536
			c0.548-0.438,1.188-0.697,1.839-0.93c1.106-0.396,2.242-0.682,3.396-0.898c0.152-0.027,0.208-0.079,0.223-0.238
			c0.073-0.756,0.573-1.344,1.238-1.485c0.133-0.028,0.267-0.022,0.401-0.017c0.308,0.011,0.424,0.182,0.313,0.469
			c-0.081,0.209-0.148,0.412-0.129,0.643c0.029,0.342,0.159,0.521,0.482,0.627c0.102,0.033,0.205,0.065,0.301,0.111
			c0.135,0.064,0.203,0.013,0.233-0.117c0.026-0.11,0.048-0.222,0.046-0.338c-0.003-0.207-0.005-0.416,0.002-0.623
			c0.014-0.421,0.332-0.669,0.75-0.591c0.783,0.146,1.318,0.729,1.407,1.524c0.027,0.247,0.044,0.491,0.004,0.74
			c-0.044,0.269-0.135,0.508-0.363,0.668c-0.112,0.08-0.112,0.139-0.02,0.236c0.328,0.346,0.617,0.725,0.869,1.13
			c0.377,0.608,0.945,0.851,1.631,0.917c0.732,0.07,1.458-0.047,2.188-0.056c0.949-0.012,1.888,0.053,2.813,0.257
			c1.382,0.305,2.646,0.87,3.744,1.773c0.962,0.79,1.712,1.744,2.111,2.932c0.291,0.867,0.333,1.769,0.272,2.682
			c-0.088,1.32-0.365,2.596-0.811,3.838c-0.118,0.329-0.256,0.648-0.422,0.956c-0.029,0.055-0.045,0.149-0.125,0.137
			c-0.074-0.013-0.039-0.101-0.053-0.155c-0.037-0.154-0.048-0.317-0.133-0.489c-0.161,0.333-0.251,0.665-0.335,0.999
			c-0.249,0.986-0.315,1.98-0.103,2.984c0.026,0.125,0.064,0.246,0.096,0.369c0.051,0.193,0.016,0.238-0.186,0.254
			c-0.621,0.048-1.211-0.092-1.787-0.309c-0.118-0.045-0.236-0.089-0.41-0.154c0.219,0.308,0.523,0.434,0.741,0.674
			C53.075,22.491,52.458,22.339,51.837,22.028z M33.2,6.166c-0.043,0.103-0.101,0.18-0.105,0.261
			c-0.013,0.211-0.145,0.455,0.136,0.604c0.048,0.026,0.074,0.08,0.058,0.139c-0.016,0.059-0.057,0.087-0.118,0.092
			c-0.044,0.004-0.094-0.014-0.127,0.037c-0.08,0.121,0.011,0.405,0.152,0.458c0.063,0.024,0.105,0.057,0.106,0.128
			c0,0.063-0.037,0.106-0.091,0.118c-0.098,0.022-0.173,0.066-0.137,0.175c0.037,0.106-0.026,0.262,0.161,0.305
			c0.152,0.037,0.167,0.129,0.044,0.24c-0.137,0.125,0.006,0.214,0.031,0.316c0.021,0.084,0.078,0.055,0.155,0.058
			c0.144,0.004,0.228-0.114,0.308-0.12c0.217-0.017,0.184-0.158,0.188-0.271c0.023-0.636,0.036-1.271,0.051-1.907
			c0.002-0.111-0.002-0.222-0.092-0.324c-0.037,0.051-0.063,0.089-0.09,0.125c-0.044,0.061-0.076,0.063-0.114-0.011
			c-0.045-0.091-0.033-0.254-0.148-0.254c-0.087,0-0.057,0.177-0.142,0.252C33.284,6.492,33.288,6.32,33.2,6.166z M39.341,1.985
			c0.073-0.009,0.146-0.021,0.218-0.027c0.215-0.016,0.396-0.042,0.396-0.338c0.001-0.186,0.124-0.349,0.254-0.489
			c0.101-0.108,0.21-0.205,0.333-0.289c0.059-0.04,0.149-0.075,0.127-0.161c-0.028-0.107-0.134-0.063-0.207-0.064
			c-0.592-0.016-1.158,0.521-1.234,1.254C39.22,1.95,39.249,2.001,39.341,1.985z M34.491,5.712c0.165-0.132,0.318-0.258,0.521-0.3
			c0.299-0.062,0.37-0.004,0.354,0.298c-0.003,0.07-0.012,0.146,0.101,0.112c0.129-0.039,0.297-0.279,0.306-0.445
			c0.009-0.178-0.09-0.288-0.24-0.359C35.073,4.802,34.541,5.147,34.491,5.712z M49.451,22.003
			c-0.223-0.126-0.455-0.174-0.708-0.115c-0.613,0.146-1.205,0.346-1.742,0.686c0.785-0.185,1.568-0.373,2.361-0.521
			C49.392,22.047,49.431,22.052,49.451,22.003z M46.13,22.196c0.598-0.154,1.197-0.308,1.818-0.467
			c-0.141-0.126-0.303-0.162-0.441-0.133C47.01,21.704,46.542,21.893,46.13,22.196z M41.809,21.37
			c-0.432,0.144-0.845,0.326-1.199,0.617c-0.127,0.104-0.191,0.246-0.221,0.461C40.891,22.078,41.386,21.777,41.809,21.37z
			 M39.998,21.991c0.284-0.094,1.229-0.805,1.332-0.985C40.828,21.292,40.27,21.446,39.998,21.991z M33.892,5.687
			c-0.005-0.242-0.035-0.481-0.204-0.67c-0.091-0.102-0.199-0.147-0.307-0.023c-0.09,0.104-0.129,0.232-0.149,0.365
			c-0.005,0.039-0.004,0.084,0.036,0.109c0.044,0.027,0.077-0.004,0.103-0.033c0.144-0.16,0.257-0.08,0.363,0.046
			C33.789,5.547,33.839,5.618,33.892,5.687z M38.838,20.521c-0.399,0.155-0.844,0.238-1.07,0.671
			C38.131,20.979,38.568,20.884,38.838,20.521z"/>
		<path fill-rule="evenodd" clip-rule="evenodd" d="M40.015,3.851c0.235,0,0.47,0.008,0.704-0.003
			c0.177-0.008,0.216,0.072,0.205,0.231c-0.034,0.495-0.453,0.783-1.001,0.672c-0.414-0.083-0.663-0.354-0.806-0.737
			c-0.042-0.112-0.009-0.164,0.113-0.163C39.492,3.853,39.753,3.851,40.015,3.851L40.015,3.851z M40.139,4.039
			c-0.103-0.009-0.207,0.007-0.309,0.042c-0.038,0.013-0.082,0.025-0.087,0.07c-0.008,0.062,0.048,0.076,0.09,0.088
			c0.195,0.055,0.393,0.056,0.589,0.006c0.044-0.012,0.102-0.024,0.105-0.077c0.005-0.067-0.06-0.075-0.109-0.093
			C40.329,4.042,40.237,4.034,40.139,4.039z"/>
		<path fill-rule="evenodd" clip-rule="evenodd" d="M35.757,7.689c0.44,0.011,0.865,0.087,1.265,0.277
			c0.055,0.026,0.109,0.054,0.158,0.087c0.062,0.043,0.088,0.104,0.048,0.175c-0.039,0.067-0.101,0.084-0.173,0.052
			c-0.098-0.043-0.193-0.092-0.293-0.133c-0.393-0.159-0.804-0.189-1.223-0.17c-0.093,0.005-0.188,0.005-0.281,0.008
			c-0.08,0.002-0.152-0.014-0.159-0.111c-0.007-0.094,0.064-0.136,0.138-0.145C35.409,7.708,35.583,7.702,35.757,7.689z"/>
		<path fill-rule="evenodd" clip-rule="evenodd" d="M36.775,7.177c-0.408-0.013-0.792,0.092-1.166,0.247
			c-0.062,0.025-0.123,0.052-0.184,0.079c-0.084,0.036-0.174,0.066-0.226-0.039s0.026-0.157,0.109-0.198
			c0.294-0.146,0.603-0.251,0.925-0.317c0.271-0.057,0.545-0.041,0.819-0.037c0.09,0,0.186,0.021,0.188,0.135
			c0.002,0.118-0.093,0.129-0.185,0.13C36.962,7.177,36.869,7.177,36.775,7.177z"/>
		<path fill-rule="evenodd" clip-rule="evenodd" d="M35.346,8.401c0.477,0.076,0.94,0.168,1.328,0.474
			c0.077,0.061,0.181,0.128,0.088,0.243c-0.091,0.111-0.177,0.031-0.256-0.033c-0.28-0.225-0.616-0.309-0.958-0.375
			c-0.079-0.016-0.157-0.03-0.236-0.047c-0.081-0.017-0.141-0.063-0.125-0.15C35.202,8.431,35.27,8.397,35.346,8.401z"/>
		<path fill-rule="evenodd" clip-rule="evenodd" d="M39.601,2.93c0.059-0.003,0.108,0.019,0.13,0.073
			c0.025,0.063,0.016,0.131-0.046,0.158c-0.231,0.102-0.381,0.26-0.412,0.521c-0.007,0.066-0.069,0.098-0.137,0.086
			c-0.06-0.01-0.086-0.052-0.099-0.11C38.976,3.381,39.318,2.937,39.601,2.93z"/>
		<path fill-rule="evenodd" clip-rule="evenodd" d="M40.388,2.967c0.207,0.009,0.571,0.416,0.56,0.625
			c-0.003,0.06-0.031,0.103-0.086,0.124c-0.066,0.025-0.129,0.002-0.154-0.057c-0.09-0.211-0.219-0.381-0.434-0.479
			c-0.048-0.022-0.066-0.083-0.039-0.142C40.267,2.974,40.325,2.964,40.388,2.967z"/>
		<path fill-rule="evenodd" clip-rule="evenodd" d="M39.697,4.921c-0.022,0.074-0.071,0.115-0.16,0.105
			C39.343,5.003,39,4.7,38.942,4.504c-0.02-0.067-0.009-0.122,0.049-0.155c0.056-0.033,0.127-0.035,0.163,0.021
			c0.121,0.19,0.277,0.336,0.487,0.424C39.683,4.813,39.702,4.862,39.697,4.921z"/>
		<path fill-rule="evenodd" clip-rule="evenodd" d="M39.193,5.202c-0.166-0.014-0.482-0.296-0.518-0.464
			c-0.011-0.055-0.013-0.112,0.038-0.146c0.055-0.036,0.125-0.038,0.166,0.014c0.12,0.154,0.236,0.304,0.431,0.373
			c0.049,0.018,0.068,0.081,0.047,0.14C39.328,5.198,39.264,5.206,39.193,5.202z"/>
		<path fill-rule="evenodd" clip-rule="evenodd" fill="none" d="M33.2,6.166c0.088,0.154,0.084,0.326,0.226,0.42
			c0.085-0.075,0.055-0.252,0.142-0.252c0.116,0,0.103,0.163,0.148,0.254c0.038,0.074,0.069,0.071,0.114,0.011
			c0.027-0.036,0.054-0.074,0.09-0.125c0.089,0.103,0.094,0.213,0.092,0.324c-0.015,0.636-0.028,1.271-0.051,1.907
			c-0.004,0.112,0.029,0.254-0.188,0.271c-0.081,0.006-0.165,0.124-0.308,0.12c-0.077-0.003-0.133,0.026-0.155-0.058
			c-0.025-0.103-0.168-0.191-0.031-0.316c0.122-0.111,0.108-0.203-0.044-0.24c-0.187-0.043-0.124-0.198-0.161-0.305
			c-0.036-0.108,0.039-0.152,0.137-0.175c0.054-0.012,0.091-0.056,0.091-0.118c0-0.071-0.043-0.104-0.106-0.128
			c-0.142-0.053-0.232-0.337-0.152-0.458c0.034-0.051,0.083-0.033,0.127-0.037c0.061-0.005,0.102-0.033,0.118-0.092
			c0.017-0.059-0.009-0.112-0.058-0.139c-0.281-0.148-0.149-0.393-0.136-0.604C33.099,6.346,33.157,6.269,33.2,6.166z"/>
		<path fill-rule="evenodd" clip-rule="evenodd" fill="none" d="M39.341,1.985C39.249,2.001,39.22,1.95,39.229,1.87
			c0.076-0.732,0.642-1.27,1.234-1.254c0.073,0.002,0.179-0.043,0.207,0.064c0.022,0.086-0.068,0.121-0.127,0.161
			c-0.122,0.084-0.232,0.181-0.333,0.289c-0.13,0.141-0.253,0.304-0.254,0.489c-0.001,0.296-0.181,0.322-0.396,0.338
			C39.486,1.964,39.414,1.977,39.341,1.985z"/>
		<path fill-rule="evenodd" clip-rule="evenodd" fill="none" d="M34.491,5.712c0.05-0.564,0.582-0.91,1.042-0.694
			c0.15,0.071,0.249,0.182,0.24,0.359c-0.008,0.166-0.176,0.406-0.306,0.445c-0.113,0.034-0.104-0.042-0.101-0.112
			c0.016-0.302-0.055-0.359-0.354-0.298C34.81,5.454,34.656,5.58,34.491,5.712z"/>
		<path fill-rule="evenodd" clip-rule="evenodd" fill="none" d="M49.451,22.003c-0.021,0.049-0.06,0.044-0.089,0.049
			c-0.793,0.148-1.576,0.337-2.361,0.521c0.537-0.34,1.129-0.54,1.742-0.686C48.996,21.829,49.229,21.877,49.451,22.003z"/>
		<path fill-rule="evenodd" clip-rule="evenodd" fill="none" d="M46.13,22.196c0.412-0.304,0.88-0.492,1.377-0.6
			c0.139-0.029,0.301,0.007,0.441,0.133C47.327,21.889,46.728,22.042,46.13,22.196z"/>
		<path fill-rule="evenodd" clip-rule="evenodd" fill="none" d="M41.809,21.37c-0.423,0.407-0.917,0.708-1.42,1.078
			c0.03-0.215,0.094-0.357,0.221-0.461C40.963,21.696,41.376,21.514,41.809,21.37z"/>
		<path fill-rule="evenodd" clip-rule="evenodd" fill="none" d="M39.998,21.991c0.271-0.545,0.83-0.699,1.332-0.985
			C41.228,21.187,40.282,21.897,39.998,21.991z"/>
		<path fill-rule="evenodd" clip-rule="evenodd" fill="none" d="M33.892,5.687c-0.053-0.068-0.103-0.14-0.159-0.206
			c-0.105-0.126-0.219-0.206-0.363-0.046c-0.026,0.029-0.059,0.061-0.103,0.033c-0.04-0.025-0.041-0.07-0.036-0.109
			c0.02-0.133,0.059-0.262,0.149-0.365c0.108-0.124,0.216-0.078,0.307,0.023C33.856,5.205,33.887,5.444,33.892,5.687z"/>
		<path fill-rule="evenodd" clip-rule="evenodd" fill="none" d="M38.838,20.521c-0.27,0.362-0.707,0.458-1.07,0.671
			C37.994,20.76,38.438,20.677,38.838,20.521z"/>
		<path fill-rule="evenodd" clip-rule="evenodd" fill="none" d="M40.139,4.039c0.098-0.005,0.19,0.003,0.279,0.036
			c0.049,0.018,0.114,0.025,0.109,0.093c-0.003,0.053-0.061,0.065-0.105,0.077c-0.196,0.05-0.394,0.049-0.589-0.006
			c-0.042-0.012-0.098-0.026-0.09-0.088c0.005-0.045,0.05-0.058,0.087-0.07C39.932,4.046,40.036,4.03,40.139,4.039z"/>
	</g>
</g>
</svg>
